<?xml version="1.0" standalone="no"?>
<!DOCTYPE svg PUBLIC "-//W3C//DTD SVG 20010904//EN"
 "http://www.w3.org/TR/2001/REC-SVG-20010904/DTD/svg10.dtd">
<svg version="1.0" xmlns="http://www.w3.org/2000/svg"
 width="210.000000pt" height="209.000000pt" viewBox="0 0 210.000000 209.000000"
 preserveAspectRatio="xMidYMid meet">

<g transform="translate(0.000000,209.000000) scale(0.100000,-0.100000)"
fill="#000000" stroke="none">
<path d="M1380 2065 c-213 -25 -273 -42 -313 -83 -39 -40 -67 -104 -241 -542
-86 -217 -166 -417 -178 -445 -11 -27 -29 -71 -39 -97 -11 -27 -27 -69 -38
-95 -10 -27 -28 -70 -39 -98 -12 -27 -33 -81 -48 -120 -14 -38 -32 -83 -40
-100 -7 -16 -38 -95 -70 -174 -31 -80 -68 -160 -80 -179 -38 -56 -32 -76 29
-103 28 -12 56 -23 62 -23 13 -1 44 62 45 90 0 12 68 192 151 400 83 209 221
555 306 769 85 215 166 411 179 436 27 54 68 92 121 111 45 15 355 18 500 4
91 -9 91 -9 118 18 21 21 26 33 21 54 -13 52 -67 151 -97 176 -39 33 -80 33
-349 1z"/>
<path d="M1492 1529 c-55 -9 -104 -30 -134 -57 -15 -12 -18 -32 -18 -99 l0
-84 26 20 c43 34 119 51 224 51 104 0 181 -17 223 -50 14 -11 28 -20 31 -20 3
0 6 33 6 74 0 70 -2 76 -31 105 -53 53 -207 82 -327 60z"/>
<path d="M1432 1321 c-69 -24 -94 -47 -90 -85 2 -24 12 -34 48 -53 86 -44 246
-54 351 -23 52 15 103 52 107 77 4 28 -47 69 -110 88 -73 21 -238 20 -306 -4z"/>
</g>
</svg>
