<?xml version="1.0" standalone="no"?>
<!DOCTYPE svg PUBLIC "-//W3C//DTD SVG 20010904//EN"
 "http://www.w3.org/TR/2001/REC-SVG-20010904/DTD/svg10.dtd">
<svg version="1.0" xmlns="http://www.w3.org/2000/svg"
 width="902.000000pt" height="902.000000pt" viewBox="0 0 902.000000 902.000000"
 preserveAspectRatio="xMidYMid meet">

<g transform="translate(0.000000,902.000000) scale(0.100000,-0.100000)"
fill="#000000" stroke="none">
<path d="M2865 6629 c-199 -11 -373 -25 -425 -34 -14 -2 -54 -7 -90 -11 -36
-3 -137 -19 -225 -35 -566 -102 -929 -230 -1310 -462 -273 -166 -488 -408
-576 -648 -121 -329 -53 -733 181 -1082 164 -244 283 -368 600 -623 135 -109
391 -278 537 -355 40 -21 83 -45 95 -53 43 -28 133 -76 238 -127 144 -70 315
-149 325 -149 3 0 27 -9 53 -21 78 -35 85 -38 142 -60 210 -82 621 -218 830
-276 476 -131 988 -233 1415 -283 159 -19 513 -50 655 -57 272 -15 911 -8
1075 12 17 2 64 6 105 10 41 3 104 11 140 16 36 6 76 12 90 14 24 3 93 13 135
20 11 2 38 6 60 9 39 5 100 16 120 22 6 1 53 12 105 23 260 55 556 149 720
229 30 15 57 27 60 27 3 0 47 22 98 48 421 212 701 523 810 897 24 82 23 370
-1 465 -52 201 -124 355 -247 530 -312 445 -929 890 -1705 1231 -79 35 -491
194 -502 194 -7 0 -13 5 -13 10 0 6 -9 10 -21 10 -11 0 -80 20 -152 43 -73 24
-159 52 -192 61 -104 31 -129 39 -155 47 -109 37 -533 137 -799 188 -281 54
-559 97 -836 127 -33 4 -67 8 -75 9 -26 5 -215 19 -222 17 -4 -1 -55 3 -113 8
-128 13 -762 19 -930 9z m765 -364 c138 -6 162 -8 380 -25 337 -27 996 -132
1280 -205 30 -8 105 -26 165 -41 110 -26 379 -101 465 -129 25 -8 79 -26 120
-39 722 -234 1404 -589 1854 -964 134 -111 271 -250 330 -334 17 -25 49 -69
72 -99 23 -30 45 -65 49 -79 4 -14 14 -33 23 -42 8 -10 12 -18 9 -18 -3 0 5
-27 19 -61 44 -107 67 -224 66 -339 0 -94 -4 -115 -31 -185 -44 -114 -105
-205 -206 -306 -49 -49 -92 -89 -96 -89 -7 0 9 43 49 130 23 52 20 251 -6 350
-29 107 -103 257 -179 359 -97 132 -291 329 -398 406 -15 11 -39 29 -54 41
-24 19 -164 117 -200 139 -8 6 -41 27 -72 47 -30 20 -72 46 -92 57 -20 12 -53
30 -72 41 -19 11 -52 30 -72 41 -84 48 -455 229 -468 229 -3 0 -30 12 -62 26
-32 14 -67 29 -78 33 -67 28 -84 34 -125 48 -25 8 -58 21 -75 28 -50 21 -107
42 -165 60 -30 9 -68 23 -85 30 -16 8 -51 17 -77 20 -26 3 -50 10 -53 15 -3 4
-24 11 -48 15 -23 4 -49 12 -57 19 -8 6 -28 13 -45 15 -16 1 -39 9 -50 16 -12
7 -37 15 -55 19 -19 3 -87 19 -150 36 -515 138 -1223 252 -1645 266 -82 3
-170 7 -195 9 -95 9 -689 13 -775 5 -49 -4 -130 -11 -180 -15 -482 -39 -1022
-169 -1292 -311 -35 -18 -63 -31 -63 -28 0 3 -20 -9 -44 -26 -25 -16 -50 -30
-56 -30 -13 0 -73 -40 -78 -52 -2 -5 -19 -19 -38 -32 -36 -24 -130 -111 -175
-163 -53 -60 -139 -200 -139 -226 0 -5 -7 -23 -15 -40 -20 -43 -33 -107 -29
-143 2 -16 5 -65 7 -108 l4 -79 -24 39 c-42 68 -100 186 -128 264 -40 110 -46
251 -15 346 52 156 127 293 211 384 22 25 53 59 68 75 24 27 81 70 136 102 81
48 417 207 490 233 204 73 437 138 595 166 14 2 59 11 100 19 225 44 463 67
840 81 102 3 186 8 188 9 4 4 272 -3 442 -10z"/>
</g>
</svg>
