<?xml version="1.0" standalone="no"?>
<!DOCTYPE svg PUBLIC "-//W3C//DTD SVG 20010904//EN"
 "http://www.w3.org/TR/2001/REC-SVG-20010904/DTD/svg10.dtd">
<svg version="1.0" xmlns="http://www.w3.org/2000/svg"
 width="1038.000000pt" height="931.000000pt" viewBox="0 0 1038.000000 931.000000"
 preserveAspectRatio="xMidYMid meet">

<g transform="translate(0.000000,931.000000) scale(0.100000,-0.100000)"
fill="#000000" stroke="none">
<path d="M955 9291 c-46 -21 -632 -604 -652 -649 -19 -42 -16 -118 6 -160 30
-56 2357 -2378 2403 -2397 30 -12 86 -15 290 -15 l253 0 925 -925 924 -924
-20 -28 c-190 -256 -299 -522 -351 -853 -25 -157 -24 -499 0 -655 85 -536 302
-1022 654 -1460 124 -155 425 -454 568 -565 365 -282 742 -471 1140 -573 382
-98 716 -111 1061 -42 692 139 1211 634 1374 1308 133 552 46 1156 -252 1751
-145 289 -334 548 -593 815 -293 301 -579 508 -947 686 -255 122 -518 206
-793 252 -155 26 -587 26 -725 0 -332 -61 -574 -165 -829 -354 -14 -11 -139
110 -940 911 l-923 923 1 244 c0 146 -5 260 -11 284 -10 35 -172 201 -1192
1223 -857 858 -1193 1188 -1223 1202 -53 25 -96 25 -148 1z m5510 -5061 l-135
-135 -154 154 c-85 85 -153 158 -150 162 8 13 258 68 349 77 l90 8 68 -65 67
-66 -135 -135z m842 137 c89 -31 261 -102 272 -113 3 -3 -31 -40 -74 -84 l-80
-80 -132 132 c-73 73 -133 138 -133 143 0 15 21 35 36 35 7 0 57 -15 111 -33z
m-1390 -684 l-137 -138 -200 201 -201 200 66 77 c36 42 98 104 138 137 l72 60
200 -200 200 -200 -138 -137z m1098 -3 l-135 -135 -137 137 -138 138 135 135
135 135 137 -137 138 -138 -135 -135z m1065 263 c52 -40 111 -86 130 -102 l35
-30 -135 -136 -135 -135 -137 137 -138 138 117 117 117 118 26 -17 c14 -9 68
-49 120 -90z m-2712 -810 l-138 -138 -65 65 c-56 55 -65 70 -65 100 0 80 45
304 80 394 l11 30 157 -157 157 -157 -137 -137z m1102 272 l135 -135 -138
-138 -137 -137 -137 137 -138 138 135 135 c74 74 137 135 140 135 3 0 66 -61
140 -135z m1095 -275 l-135 -135 -137 137 -138 138 135 135 135 135 137 -137
138 -138 -135 -135z m1032 313 c39 -49 91 -117 117 -152 l47 -65 -113 -113
c-62 -62 -117 -113 -123 -113 -5 0 -69 60 -142 132 l-133 133 132 132 c73 73
135 133 139 133 3 0 37 -39 76 -87z m-2677 -588 l135 -135 -138 -138 -137
-137 -137 137 -138 138 135 135 c74 74 137 135 140 135 3 0 66 -61 140 -135z
m1100 0 l135 -135 -138 -138 -137 -137 -137 137 -138 138 135 135 c74 74 137
135 140 135 3 0 66 -61 140 -135z m1095 -275 l-135 -135 -137 137 -138 138
135 135 135 135 137 -137 138 -138 -135 -135z m898 180 c24 -58 57 -143 72
-189 l27 -83 -21 -21 -21 -22 -137 138 -138 137 80 80 c43 44 82 76 86 72 4
-4 27 -54 52 -112z m-3643 -455 l135 -135 -80 -80 -80 -80 -22 44 c-26 51 -93
218 -118 294 -16 51 -16 54 1 73 9 10 20 19 23 19 4 0 67 -61 141 -135z m1100
0 l135 -135 -138 -138 -137 -137 -137 137 -138 138 135 135 c74 74 137 135
140 135 3 0 66 -61 140 -135z m1100 0 l135 -135 -138 -138 -137 -137 -137 137
-138 138 135 135 c74 74 137 135 140 135 3 0 66 -61 140 -135z m1090 0 l135
-135 -135 -135 -135 -135 -137 137 -138 138 132 132 c73 73 135 133 138 133 3
0 66 -61 140 -135z m-2740 -550 l135 -135 -135 -135 -135 -136 -33 38 c-51 59
-202 260 -202 269 0 9 221 234 230 234 3 0 66 -61 140 -135z m1100 0 l135
-135 -138 -138 -137 -137 -137 137 -138 138 135 135 c74 74 137 135 140 135 3
0 66 -61 140 -135z m1097 3 l133 -133 -137 -137 -138 -138 -137 137 -138 138
132 132 c73 73 137 133 143 133 5 0 69 -60 142 -132z m1022 68 l64 -65 -7 -83
c-7 -93 -26 -188 -58 -296 l-21 -73 -159 158 -158 158 132 132 c73 73 135 133
138 133 3 0 34 -29 69 -64z m-219 -884 c0 -8 -59 -73 -131 -145 l-130 -130
-205 204 -204 204 137 137 138 138 197 -197 c109 -109 198 -204 198 -211z
m-2450 263 l135 -135 -117 -117 -117 -117 -54 36 c-30 20 -101 74 -157 119
l-102 82 133 133 c74 74 136 134 139 134 3 0 66 -61 140 -135z m1098 2 l132
-132 -138 -138 -137 -137 -133 133 c-72 73 -132 137 -132 142 0 13 252 265
265 265 6 0 70 -60 143 -133z m-439 -703 l-21 -22 -98 33 c-109 37 -290 114
-290 123 0 4 35 42 77 84 l78 78 137 -137 138 -137 -21 -22z m1153 -26 c-15
-15 -249 -67 -346 -78 l-100 -11 -68 68 -68 68 137 137 138 138 157 -157 c87
-87 154 -161 150 -165z"/>
<path d="M8543 8966 c-115 -27 -175 -67 -343 -233 l-155 -152 58 -58 c55 -57
66 -73 49 -73 -5 0 -278 -133 -608 -296 -329 -163 -861 -426 -1181 -584 l-583
-288 0 -54 0 -53 143 -141 142 -142 279 -6 c154 -4 282 -9 285 -11 2 -3 -6
-118 -19 -255 l-24 -251 40 -38 39 -39 185 18 c102 11 215 21 251 25 l67 6 4
-38 c3 -21 6 -148 7 -283 l2 -245 147 -147 147 -148 48 0 49 0 245 498 c135
273 356 720 490 992 135 272 290 587 345 699 l99 204 57 -56 c32 -32 62 -57
67 -57 5 0 76 68 157 151 124 126 153 162 182 222 77 162 75 320 -6 478 -37
72 -171 218 -252 274 -115 79 -279 111 -413 81z m-463 -820 c-25 -23 -420
-317 -433 -322 -7 -2 -30 14 -52 36 l-39 40 265 129 c145 72 266 130 269 131
2 0 -2 -6 -10 -14z m234 -128 c-4 -7 -91 -123 -192 -256 l-184 -244 -64 63
c-35 35 -62 65 -59 67 7 7 500 381 503 381 2 1 0 -5 -4 -11z m10 -484 c-70
-142 -128 -261 -131 -264 -2 -2 -22 14 -45 37 l-41 41 169 225 c93 123 170
224 172 222 1 -1 -55 -118 -124 -261z m-934 191 c47 -48 52 -57 40 -69 -8 -7
-98 -75 -198 -151 l-184 -138 -94 94 -95 94 228 112 c125 61 233 112 238 112
6 1 35 -24 65 -54z m255 -596 c-81 -107 -150 -195 -153 -197 -4 -1 -67 58
-141 132 l-133 133 198 151 199 152 88 -89 89 -88 -147 -194z m-900 201 c60
-60 107 -111 104 -113 -2 -2 -33 -25 -68 -52 l-65 -49 -275 3 -276 2 -30 31
c-16 17 -25 32 -20 35 6 2 123 60 260 128 138 68 252 124 255 124 3 1 55 -48
115 -109z m1276 -236 l57 -56 -107 -217 c-59 -119 -111 -224 -117 -233 -8 -15
-22 -5 -102 75 l-93 93 148 196 c81 109 150 197 153 197 2 1 30 -24 61 -55z
m-837 -203 l159 -160 -55 -74 -56 -74 -114 -11 c-62 -6 -150 -15 -195 -18 -83
-7 -83 -7 -82 17 0 13 8 101 17 195 l17 172 70 55 c39 31 72 56 75 57 3 0 77
-72 164 -159z m421 -811 c-71 -143 -132 -260 -136 -260 -3 0 -16 12 -30 26
-24 25 -24 26 -27 302 l-4 277 53 68 53 68 110 -110 111 -111 -130 -260z"/>
</g>
</svg>
